<?xml version="1.0" encoding="UTF-8" standalone="no"?>
<svg
   xmlns:dc="http://purl.org/dc/elements/1.1/"
   xmlns:cc="http://creativecommons.org/ns#"
   xmlns:rdf="http://www.w3.org/1999/02/22-rdf-syntax-ns#"
   xmlns:svg="http://www.w3.org/2000/svg"
   xmlns="http://www.w3.org/2000/svg"
   xmlns:xlink="http://www.w3.org/1999/xlink"
   xmlns:sodipodi="http://sodipodi.sourceforge.net/DTD/sodipodi-0.dtd"
   xmlns:inkscape="http://www.inkscape.org/namespaces/inkscape"
   xml:space="preserve"
   width="300.54501"
   height="213.12801"
   version="1.1"
   style="clip-rule:evenodd;fill-rule:evenodd;image-rendering:optimizeQuality;shape-rendering:geometricPrecision;text-rendering:geometricPrecision"
   viewBox="0 0 7951.9193 5639.0118"
   id="svg106"
   sodipodi:docname="logo-wmr2.svg"
   inkscape:version="1.0.2-2 (e86c870879, 2021-01-15)"><metadata
   id="metadata110"><rdf:RDF><cc:Work
       rdf:about=""><dc:format>image/svg+xml</dc:format><dc:type
         rdf:resource="http://purl.org/dc/dcmitype/StillImage" /><dc:title /></cc:Work></rdf:RDF></metadata><sodipodi:namedview
   pagecolor="#ffffff"
   bordercolor="#666666"
   borderopacity="1"
   objecttolerance="10"
   gridtolerance="10"
   guidetolerance="10"
   inkscape:pageopacity="0"
   inkscape:pageshadow="2"
   inkscape:window-width="1920"
   inkscape:window-height="1009"
   id="namedview108"
   showgrid="false"
   inkscape:zoom="11.313708"
   inkscape:cx="181.24223"
   inkscape:cy="181.74522"
   inkscape:window-x="-8"
   inkscape:window-y="-8"
   inkscape:window-maximized="1"
   inkscape:current-layer="_522399560"
   inkscape:document-rotation="0" />
 <defs
   id="defs7">
  <style
   type="text/css"
   id="style2">
   <![CDATA[
    .fil0 {fill:#FEFEFE}
    .fil3 {fill:#FECC07}
    .fil2 {fill:#7CB932}
    .fil1 {fill:#2B418C}
   ]]>
  </style>
   <clipPath
   id="id0"
   style="clip-rule:nonzero">
    <path
   d="m 9211,20438 h 7264 V 14799 H 9211 Z"
   id="path4" />
   </clipPath>
 </defs>
 <g
   id="Warstwa_x0020_1"
   transform="translate(-8524.0348,-14797.979)">
  <metadata
   id="CorelCorpID_0Corel-Layer" />
  <g
   clip-path="url(#id0)"
   id="g12">
   <image
   xlink:href="11924-logo%20wolontariat-e483d162-dd85-483e-b66d-90d2c9176c5b_Images%5C11924-logo%20wolontariat-e483d162-dd85-483e-b66d-90d2c9176c5b_ImgID1.png"
   id="image10"
   height="5639"
   width="7264"
   y="14799"
   x="9211" />
  </g>
  <g
   id="_522399560">
   <path
   class="fil0"
   d="m 9211,17983 c 25,-55 31,-336 274,-541 599,-506 1387,-56 1387,616 -2,450 -362,812 -796,828 -239,9 -476,-95 -593,-218 -285,-294 -221,-422 -272,-535 v 2305 h 1653 l -2,-101 3960,-2 v 103 h 1653 v -4760 c -12,33 -14,93 -22,131 -56,252 -233,481 -482,586 -163,68 -338,87 -525,44 -83,-20 -151,-52 -219,-88 -119,-67 -232,-183 -300,-299 -37,-64 -68,-138 -89,-218 -125,-505 235,-995 748,-1029 v -6 H 9211 Z"
   id="path14" />
   <path
   class="fil1"
   d="m 12730,15056 c -496,38 -894,259 -1194,612 l -134,187 c -54,87 -101,179 -142,282 -180,447 -147,963 72,1393 47,93 105,187 162,261 48,59 151,176 206,225 1205,1036 2943,115 2846,-1373 -62,-946 -892,-1657 -1816,-1587 z"
   id="path16" />
   <path
   class="fil2"
   d="m 9211,17983 v 150 c 51,113 -13,241 272,535 117,123 354,227 593,218 434,-16 794,-378 796,-828 0,-672 -788,-1122 -1387,-616 -243,205 -249,486 -274,541 z"
   id="path18" />
   <path
   class="fil3"
   d="m 16475,15678 v -90 c -18,-48 -18,-121 -31,-172 -96,-366 -457,-643 -858,-611 -513,34 -873,524 -748,1029 21,80 52,154 89,218 68,116 181,232 300,299 68,36 136,68 219,88 187,43 362,24 525,-44 249,-105 426,-334 482,-586 8,-38 10,-98 22,-131 z"
   id="path20" />
   <path
   class="fil0"
   d="m 12664,16881 c -113,77 -111,-22 -196,109 l -150,161 c -62,-16 -99,-49 -157,-49 -94,107 -24,211 40,321 18,35 35,70 53,106 155,300 282,236 610,330 94,28 154,69 247,10 70,-46 119,-69 162,-150 39,-78 95,-162 112,-203 30,-83 51,-150 96,-216 42,-57 124,-149 107,-190 -14,-40 -51,-38 -90,-62 -58,-36 -31,-63 -151,-162 -96,-80 -133,-180 -269,-206 -76,-14 -58,0 -107,-43 -177,-152 -284,-144 -324,100 -12,79 23,88 17,144 z"
   id="path22" />
   <polygon
   class="fil2"
   points="10864,20438 14822,20438 14822,20335 10862,20337 "
   id="polygon24" />
   <path
   class="fil0"
   d="m 13216,16456 c 134,-30 183,-278 230,-419 46,-134 258,-417 122,-446 -177,-36 -194,181 -218,255 -21,54 -46,62 -68,102 -46,80 -21,192 -66,264 -25,38 -46,54 -44,120 0,47 15,99 44,124 z"
   id="path26" />
   <path
   class="fil0"
   d="m 16475,15588 v -789 h -889 v 6 c 401,-32 762,245 858,611 13,51 13,124 31,172 z"
   id="path28" />
   <path
   class="fil0"
   d="m 12886,15553 c -125,-6 -123,18 -158,122 -44,129 16,140 2,239 -15,98 -33,469 27,521 123,107 98,-243 129,-409 8,-43 54,-337 48,-379 -7,-41 -33,-63 -48,-94 z"
   id="path30" />
   <path
   class="fil0"
   d="m 13984,15950 c -194,-138 -266,273 -389,500 -35,65 -151,97 -122,182 12,42 70,40 109,16 101,-66 202,-257 264,-363 59,-101 154,-224 138,-335 z"
   id="path32" />
   <path
   class="fil0"
   d="m 12065,16992 c 53,-99 -27,-91 -19,-178 8,-89 25,-112 -27,-193 -33,-55 -183,-214 -284,-144 -47,32 -47,120 -12,171 18,27 33,42 49,67 48,77 155,315 293,277 z"
   id="path34" />
   <path
   id="path36"
   style="stroke-width:0.0377953;fill:#2b418c;fill-opacity:1"
   d="M 147.92578 162.57227 C 147.37713 162.58368 146.79849 162.65287 146.19141 162.78516 C 137.15833 164.75051 139.72712 179.30102 149.70508 176.91992 C 157.71295 175.04197 156.15553 162.40105 147.92578 162.57227 z M 148.04688 164.83203 C 152.89065 164.68291 153.77535 172.96347 149.63086 174.53906 C 143.24346 176.92016 140.74868 167.24476 146.41797 165.16602 C 147.00261 164.95342 147.54579 164.84746 148.04688 164.83203 z "
   transform="matrix(26.458332,0,0,26.458332,8524.0348,14797.979)" />
   <path
   class="fil1"
   d="m 11717,19106 c -241,62 -163,436 99,373 222,-55 156,-440 -99,-373 z"
   id="path38" />
   <path
   id="path40"
   style="stroke-width:0.0377953;fill:#2b418c;fill-opacity:1"
   d="M 120.76562 185.94922 C 120.21318 185.9547 119.6298 186.01738 119.01562 186.14258 C 109.94476 187.95675 112.47771 202.62065 122.53125 200.27734 C 130.32653 198.47026 129.05226 185.867 120.76562 185.94922 z M 120.7793 188.1875 C 126.06159 188.07359 126.56751 196.91497 121.92578 198.04883 C 115.31161 199.67403 114.0645 189.65682 119.6582 188.33398 C 120.05269 188.24186 120.42714 188.19509 120.7793 188.1875 z "
   transform="matrix(26.458332,0,0,26.458332,8524.0348,14797.979)" />
   <path
   class="fil0"
   d="m 13658,17048 c 124,1 287,-159 350,-213 48,-42 85,-93 138,-141 25,-20 64,-41 81,-62 92,-117 -70,-192 -179,-45 -62,82 -40,96 -130,158 -60,44 -280,205 -260,303 z"
   id="path42" />
   <path
   id="path44"
   style="stroke-width:0.0377953;fill:#2b418c;fill-opacity:1"
   d="M 191.44531 185.94336 C 190.32622 185.97702 189.26736 186.09592 188.44531 186.21875 L 188.37109 200.24023 C 191.47031 200.80716 199.18069 201.10901 198.80273 195.85547 C 198.65155 194.0413 197.70623 193.81587 196.45898 192.98438 C 197.17709 192.26625 198.34824 191.69942 198.42383 190.07422 C 198.70729 186.50257 194.8026 185.84238 191.44531 185.94336 z M 191.01562 188.18359 C 194.37941 188.18359 196.95068 188.14509 195.36328 191.77344 C 193.81367 192.37816 193.05658 192.26494 191.01562 192.30273 L 191.01562 188.18359 z M 192.72461 194.07422 C 194.48918 194.04587 196.23242 194.23064 196.23242 196.1582 C 196.15683 198.72828 193.35893 198.27539 191.01562 198.27539 L 191.01562 194.11719 C 191.54476 194.11719 192.13642 194.08367 192.72461 194.07422 z "
   transform="matrix(26.458332,0,0,26.458332,8524.0348,14797.979)" />
   <path
   class="fil1"
   d="m 11410,19371 -89,-265 c -111,-9 -70,109 -144,262 l -76,-260 -74,-5 111,377 64,2 80,-250 c 8,-12 6,-11 13,-17 l 84,265 h 66 c 16,-78 111,-329 107,-377 -91,3 -72,10 -95,101 -16,56 -35,110 -47,167 z"
   id="path46" />
   <path
   class="fil1"
   d="m 12927,17417 c 54,-51 54,-149 116,-242 18,-27 39,-36 47,-73 -37,-21 -93,-22 -132,-38 -45,-18 -70,-47 -123,-50 -54,50 -99,137 -64,235 25,72 58,152 156,168 z"
   id="path48" />
   <path
   class="fil1"
   d="m 11060,20096 62,3 v -258 c 2,2 4,2 6,5 l 62,110 c 20,39 35,92 78,98 51,-22 95,-166 134,-217 l 2,262 h 61 c 0,-80 11,-315 -4,-379 -94,6 -78,24 -121,104 -19,37 -56,120 -78,147 -21,-48 -105,-210 -134,-248 l -66,-1 z"
   id="path50" />
   <path
   id="path52"
   style="stroke-width:0.0377953;fill:#2b418c;fill-opacity:1"
   d="M 199.86914 162.70117 C 198.6126 162.67969 197.31845 162.75681 196.15625 162.78516 L 196.15625 176.95898 L 198.80273 177.0332 L 198.80273 171.47852 C 201.07045 171.40293 200.6532 171.51613 202.54297 174.50195 C 204.09258 176.95865 203.56443 177.14796 207.11719 176.95898 C 206.36128 175.40938 204.24392 172.49814 203.07227 170.98633 C 204.01715 170.26822 205.18903 169.70164 205.64258 168.49219 C 206.20951 167.05597 205.86861 165.31735 205.03711 164.29688 C 203.9505 163.04491 201.96338 162.73697 199.86914 162.70117 z M 200.3457 164.77734 C 201.56283 164.7614 201.96675 164.91027 203.07227 165.8457 C 203.86597 169.47405 201.82636 169.47519 198.80273 169.55078 L 198.80273 164.82617 C 199.44525 164.80727 199.93999 164.78266 200.3457 164.77734 z "
   transform="matrix(26.458332,0,0,26.458332,8524.0348,14797.979)" />
   <path
   id="path54"
   style="stroke-width:0.0377953;fill:#2b418c;fill-opacity:1"
   d="M 167.54883 186.06641 C 166.28652 186.05068 164.98983 186.1284 163.8418 186.14258 L 163.8418 200.35352 L 166.48633 200.35352 L 166.41211 194.83594 C 169.17116 194.79814 169.32192 196.61178 171.81641 200.35352 L 174.76367 200.35352 C 173.7432 198.23698 171.62642 195.93078 170.79492 194.04102 C 173.21382 193.32291 174.7636 190.14879 172.72266 187.6543 C 171.65966 186.37871 169.65267 186.09261 167.54883 186.06641 z M 168.07031 188.13477 C 169.35476 188.14362 169.87897 188.39158 170.87109 189.46875 C 171.32464 192.79473 169.47216 192.90694 166.48633 192.86914 L 166.48633 188.18359 C 167.12885 188.15525 167.64216 188.13181 168.07031 188.13477 z "
   transform="matrix(26.458332,0,0,26.458332,8524.0348,14797.979)" />
   <path
   id="path56"
   style="stroke-width:0.0377953;fill:#2b418c;fill-opacity:1"
   d="M 150.20508 186.07422 C 148.93879 186.05407 147.64217 186.11964 146.49414 186.10547 L 146.49414 200.39062 L 149.13867 200.35352 L 149.13867 194.83594 C 151.63316 194.83594 151.33167 195.32587 152.42773 197.06445 C 153.18364 198.23611 153.90172 199.33246 154.58203 200.27734 L 157.49219 200.35352 L 153.44727 194.30664 C 154.35435 193.70192 155.45065 193.21093 156.01758 191.8125 C 156.54671 190.45187 156.32046 188.67477 155.45117 187.6543 C 154.34094 186.37871 152.31556 186.10781 150.20508 186.07422 z M 150.57227 188.14258 C 151.81774 188.12132 152.56853 188.24996 153.44727 189.35547 C 154.50553 192.56807 152.04949 192.90694 149.21484 192.86914 L 149.13867 188.18359 C 149.6867 188.17414 150.15711 188.14966 150.57227 188.14258 z "
   transform="matrix(26.458332,0,0,26.458332,8524.0348,14797.979)" />
   <path
   class="fil1"
   d="m 13848,20099 h 62 v -253 l 168,211 c 29,35 23,42 85,42 l 2,-331 c -2,-10 -2,-15 -2,-24 l -8,-21 h -54 v 254 l -167,-209 c -24,-34 -26,-46 -86,-45 z"
   id="path58" />
   <path
   class="fil1"
   d="m 12938,19357 c -27,-19 -140,-173 -165,-204 -27,-36 -25,-52 -82,-47 -23,54 -4,291 -9,373 l 64,1 v -248 c 25,15 41,42 60,66 l 111,142 c 23,34 29,47 85,37 v -328 c 0,-54 -2,-49 -60,-44 z"
   id="path60" />
   <path
   id="path62"
   style="stroke-width:0.0377953;fill:#2b418c;fill-opacity:1"
   d="M 221.0625 162.70898 L 218.41797 162.78516 L 212.82422 176.95898 L 215.39453 176.95898 C 215.99926 176.0141 216.30142 174.42662 217.01953 173.51953 L 222.46094 173.51953 L 224.01172 176.95898 L 226.58203 176.95898 L 221.0625 162.70898 z M 219.74023 165.46875 L 221.81836 171.5918 L 217.47266 171.5918 L 219.74023 165.46875 z "
   transform="matrix(26.458332,0,0,26.458332,8524.0348,14797.979)" />
   <path
   id="path64"
   style="stroke-width:0.0377953;fill:#2b418c;fill-opacity:1"
   d="M 189.08789 162.70898 L 186.51758 162.78516 L 180.96289 176.8457 C 184.93139 177.6394 183.45752 175.82367 185.04492 173.59375 L 190.78906 173.44336 C 191.80953 176.54257 191.16668 177.14796 194.68164 176.95898 L 189.08789 162.70898 z M 187.99219 165.77148 L 189.99609 171.51562 L 185.64844 171.51562 C 186.02639 170.30618 187.19849 166.56519 187.99219 165.77148 z "
   transform="matrix(26.458332,0,0,26.458332,8524.0348,14797.979)" />
   <path
   class="fil1"
   d="m 14398,20099 h 70 v -165 c 131,5 80,181 245,163 l -147,-201 c 33,-47 114,-125 132,-173 h -74 c -16,27 -45,59 -66,85 -31,40 -35,70 -90,72 v -158 h -64 c -17,63 -4,294 -6,377 z"
   id="path66" />
   
   
   <path
   class="fil0"
   d="m 11733,19165 c -142,35 -113,301 66,254 132,-33 101,-295 -66,-254 z"
   id="path72" />
   <path
   class="fil1"
   d="m 11962,20014 c -19,21 -17,18 -25,45 189,132 315,-63 222,-147 -43,-40 -160,-39 -140,-104 11,-35 50,-39 91,-24 43,16 56,38 68,-35 -208,-98 -280,86 -194,158 44,33 149,25 136,96 -14,88 -121,14 -158,11 z"
   id="path74" />
   <path
   class="fil1"
   d="m 13265,20099 h 70 c -4,-131 -12,-125 37,-208 23,-40 83,-128 93,-169 l -74,1 -89,171 c -105,-131 -37,-171 -169,-172 4,28 68,124 89,159 60,98 41,87 43,218 z"
   id="path76" />
   <polygon
   class="fil1"
   points="14671,19162 14783,19162 14781,19103 14490,19105 14486,19159 14597,19164 14599,19482 14671,19480 "
   id="polygon78" />
   <polygon
   class="fil1"
   points="13232,19162 13343,19162 13341,19105 13051,19105 13047,19159 13160,19164 13162,19480 13230,19480 "
   id="polygon80" />
   <path
   class="fil1"
   d="m 12011,19480 h 220 v -56 l -148,-1 -2,-320 h -64 c -16,64 -4,292 -6,377 z"
   id="path82" />
   <path
   class="fil1"
   d="m 12248,20099 h 72 l -2,-377 h -64 c -14,51 -6,306 -6,377 z"
   id="path84" />
   <polygon
   class="fil1"
   points="14245,20099 14317,20099 14315,19723 14245,19722 "
   id="polygon86" />
   <path
   class="fil1"
   d="m 14046,19480 70,2 c 2,-71 8,-328 -7,-379 h -59 z"
   id="path88" />
   
   
   
   
   
   
   
  </g>
 </g>
</svg>
