<?xml version="1.0" encoding="UTF-8" standalone="no"?>
<svg
   xmlns:dc="http://purl.org/dc/elements/1.1/"
   xmlns:cc="http://creativecommons.org/ns#"
   xmlns:rdf="http://www.w3.org/1999/02/22-rdf-syntax-ns#"
   xmlns:svg="http://www.w3.org/2000/svg"
   xmlns="http://www.w3.org/2000/svg"
   xmlns:sodipodi="http://sodipodi.sourceforge.net/DTD/sodipodi-0.dtd"
   xmlns:inkscape="http://www.inkscape.org/namespaces/inkscape"
   xml:space="preserve"
   width="274.54501"
   height="213.12801"
   version="1.1"
   style="clip-rule:evenodd;fill-rule:evenodd;image-rendering:optimizeQuality;shape-rendering:geometricPrecision;text-rendering:geometricPrecision"
   viewBox="0 0 7264.0035 5639.0118"
   id="svg106"
   sodipodi:docname="logowmr.svg"
   inkscape:version="1.0.2-2 (e86c870879, 2021-01-15)"><metadata
   id="metadata110"><rdf:RDF><cc:Work
       rdf:about=""><dc:format>image/svg+xml</dc:format><dc:type
         rdf:resource="http://purl.org/dc/dcmitype/StillImage" /><dc:title /></cc:Work></rdf:RDF></metadata><sodipodi:namedview
   pagecolor="#ffffff"
   bordercolor="#666666"
   borderopacity="1"
   objecttolerance="10"
   gridtolerance="10"
   guidetolerance="10"
   inkscape:pageopacity="0"
   inkscape:pageshadow="2"
   inkscape:window-width="1920"
   inkscape:window-height="1009"
   id="namedview108"
   showgrid="false"
   inkscape:zoom="11.313709"
   inkscape:cx="110.81033"
   inkscape:cy="177.09734"
   inkscape:window-x="-8"
   inkscape:window-y="-8"
   inkscape:window-maximized="1"
   inkscape:current-layer="_522399560"
   inkscape:document-rotation="0" />
 <defs
   id="defs7">
  <style
   type="text/css"
   id="style2">
   <![CDATA[
    .fil0 {fill:#FEFEFE}
    .fil3 {fill:#FECC07}
    .fil2 {fill:#7CB932}
    .fil1 {fill:#2B418C}
   ]]>
  </style>
   <clipPath
   id="id0"
   style="clip-rule:nonzero">
    <path
   d="m 9211,20438 h 7264 V 14799 H 9211 Z"
   id="path4" />
   </clipPath>
 </defs>
 <g
   id="Warstwa_x0020_1"
   transform="translate(-9211,-14799)">
  <metadata
   id="CorelCorpID_0Corel-Layer" />
  
  <g
   id="_522399560">
   
   <path
   class="fil1"
   d="m 12730,15056 c -496,38 -894,259 -1194,612 l -134,187 c -54,87 -101,179 -142,282 -180,447 -147,963 72,1393 47,93 105,187 162,261 48,59 151,176 206,225 1205,1036 2943,115 2846,-1373 -62,-946 -892,-1657 -1816,-1587 z"
   id="path16" />
   <path
   class="fil2"
   d="m 9211,17983 v 150 c 51,113 -13,241 272,535 117,123 354,227 593,218 434,-16 794,-378 796,-828 0,-672 -788,-1122 -1387,-616 -243,205 -249,486 -274,541 z"
   id="path18" />
   <path
   class="fil3"
   d="m 16475,15678 v -90 c -18,-48 -18,-121 -31,-172 -96,-366 -457,-643 -858,-611 -513,34 -873,524 -748,1029 21,80 52,154 89,218 68,116 181,232 300,299 68,36 136,68 219,88 187,43 362,24 525,-44 249,-105 426,-334 482,-586 8,-38 10,-98 22,-131 z"
   id="path20"
   style="fill:#fecc07;fill-opacity:0.99186999" />
   <path
   class="fil0"
   d="m 12664,16881 c -113,77 -111,-22 -196,109 l -150,161 c -62,-16 -99,-49 -157,-49 -94,107 -24,211 40,321 18,35 35,70 53,106 155,300 282,236 610,330 94,28 154,69 247,10 70,-46 119,-69 162,-150 39,-78 95,-162 112,-203 30,-83 51,-150 96,-216 42,-57 124,-149 107,-190 -14,-40 -51,-38 -90,-62 -58,-36 -31,-63 -151,-162 -96,-80 -133,-180 -269,-206 -76,-14 -58,0 -107,-43 -177,-152 -284,-144 -324,100 -12,79 23,88 17,144 z"
   id="path22" />
   <polygon
   class="fil2"
   points="14822,20335 10862,20337 10864,20438 14822,20438 "
   id="polygon24" />
   <path
   class="fil0"
   d="m 13216,16456 c 134,-30 183,-278 230,-419 46,-134 258,-417 122,-446 -177,-36 -194,181 -218,255 -21,54 -46,62 -68,102 -46,80 -21,192 -66,264 -25,38 -46,54 -44,120 0,47 15,99 44,124 z"
   id="path26" />
   <path
   class="fil0"
   d="m 16475,15588 v -789 h -889 v 6 c 401,-32 762,245 858,611 13,51 13,124 31,172 z"
   id="path28"
   style="fill:#fefefe;fill-opacity:0" />
   <path
   class="fil0"
   d="m 12886,15553 c -125,-6 -123,18 -158,122 -44,129 16,140 2,239 -15,98 -33,469 27,521 123,107 98,-243 129,-409 8,-43 54,-337 48,-379 -7,-41 -33,-63 -48,-94 z"
   id="path30" />
   <path
   class="fil0"
   d="m 13984,15950 c -194,-138 -266,273 -389,500 -35,65 -151,97 -122,182 12,42 70,40 109,16 101,-66 202,-257 264,-363 59,-101 154,-224 138,-335 z"
   id="path32" />
   <path
   class="fil0"
   d="m 12065,16992 c 53,-99 -27,-91 -19,-178 8,-89 25,-112 -27,-193 -33,-55 -183,-214 -284,-144 -47,32 -47,120 -12,171 18,27 33,42 49,67 48,77 155,315 293,277 z"
   id="path34" />
   <path
   id="path36"
   style="stroke-width:0.0377953;fill:#2b418c;fill-opacity:1"
   d="M 121.96094 162.53516 C 121.41229 162.54657 120.83365 162.61381 120.22656 162.74609 C 111.19349 164.71145 113.76423 179.26391 123.74219 176.88281 C 131.75006 175.00486 130.19068 162.36394 121.96094 162.53516 z M 122.08203 164.79297 C 126.92581 164.64385 127.8105 172.92441 123.66602 174.5 C 117.27861 176.8811 114.78383 167.20569 120.45312 165.12695 C 121.03777 164.91435 121.58095 164.80839 122.08203 164.79297 z "
   transform="matrix(26.458333,0,0,26.458333,9211,14799)" />
   <path
   id="path38"
   style="stroke-width:0.0377953;fill:#2b418c;fill-opacity:1"
   d="M 97.234375 162.49805 C 96.459481 162.45951 95.618387 162.54775 94.714844 162.78516 C 85.606182 165.12846 88.554669 179.26391 98.457031 176.88281 C 106.06097 174.99895 104.72502 162.8706 97.234375 162.49805 z M 96.439453 164.86719 C 101.72175 164.75328 102.22962 173.59466 97.587891 174.72852 C 90.973717 176.35371 89.726612 166.33651 95.320312 165.01367 C 95.714801 164.92155 96.0873 164.87478 96.439453 164.86719 z "
   transform="matrix(26.458333,0,0,26.458333,9211,14799)" />
   <path
   id="path40"
   style="stroke-width:0.0377953;fill:#2b418c;fill-opacity:1"
   d="M 94.802734 185.91211 C 94.250292 185.91759 93.666908 185.97832 93.052734 186.10352 C 83.981868 187.91769 86.512863 202.58354 96.566406 200.24023 C 104.36168 198.43315 103.08937 185.82989 94.802734 185.91211 z M 94.814453 188.14844 C 100.09675 188.03453 100.60462 196.87591 95.962891 198.00977 C 89.348717 199.63496 88.101612 189.61971 93.695312 188.29688 C 94.089801 188.20475 94.4623 188.15603 94.814453 188.14844 z "
   transform="matrix(26.458333,0,0,26.458333,9211,14799)" />
   <path
   class="fil0"
   d="m 13658,17048 c 124,1 287,-159 350,-213 48,-42 85,-93 138,-141 25,-20 64,-41 81,-62 92,-117 -70,-192 -179,-45 -62,82 -40,96 -130,158 -60,44 -280,205 -260,303 z"
   id="path42" />
   <path
   id="path44"
   style="stroke-width:0.0377953;fill:#2b418c;fill-opacity:1"
   d="M 165.48047 185.9043 C 164.36137 185.93796 163.30447 186.05685 162.48242 186.17969 L 162.40625 200.20117 C 165.50546 200.7681 173.21584 201.06995 172.83789 195.81641 C 172.68671 194.00223 171.74138 193.77681 170.49414 192.94531 C 171.21225 192.2272 172.38339 191.66035 172.45898 190.03516 C 172.74245 186.4635 168.83775 185.80331 165.48047 185.9043 z M 165.05273 188.14453 C 168.41651 188.14453 170.98584 188.10798 169.39844 191.73633 C 167.84883 192.34105 167.09368 192.22588 165.05273 192.26367 L 165.05273 188.14453 z M 166.75977 194.03711 C 168.52433 194.00876 170.26758 194.19158 170.26758 196.11914 C 170.19199 198.68922 167.39604 198.23633 165.05273 198.23633 L 165.05273 194.07812 C 165.58187 194.07812 166.17158 194.04656 166.75977 194.03711 z "
   transform="matrix(26.458333,0,0,26.458333,9211,14799)" />
   <path
   class="fil1"
   d="m 11410,19371 -89,-265 c -111,-9 -70,109 -144,262 l -76,-260 -74,-5 111,377 64,2 80,-250 c 8,-12 6,-11 13,-17 l 84,265 h 66 c 16,-78 111,-329 107,-377 -91,3 -72,10 -95,101 -16,56 -35,110 -47,167 z"
   id="path46" />
   <path
   class="fil1"
   d="m 12927,17417 c 54,-51 54,-149 116,-242 18,-27 39,-36 47,-73 -37,-21 -93,-22 -132,-38 -45,-18 -70,-47 -123,-50 -54,50 -99,137 -64,235 25,72 58,152 156,168 z"
   id="path48" />
   <path
   class="fil1"
   d="m 11060,20096 62,3 v -258 c 2,2 4,2 6,5 l 62,110 c 20,39 35,92 78,98 51,-22 95,-166 134,-217 l 2,262 h 61 c 0,-80 11,-315 -4,-379 -94,6 -78,24 -121,104 -19,37 -56,120 -78,147 -21,-48 -105,-210 -134,-248 l -66,-1 z"
   id="path50" />
   <path
   id="path52"
   style="stroke-width:0.0377953;fill:#2b418c;fill-opacity:1"
   d="M 173.90625 162.66406 C 172.6497 162.64258 171.35361 162.71775 170.19141 162.74609 L 170.19141 176.91992 L 172.83789 176.99609 L 172.83789 171.43945 C 175.10561 171.36386 174.69031 171.47706 176.58008 174.46289 C 178.12968 176.91958 177.59959 177.1089 181.15234 176.91992 C 180.39644 175.37032 178.28103 172.45908 177.10938 170.94727 C 178.05426 170.22916 179.22614 169.66257 179.67969 168.45312 C 180.24662 167.0169 179.90571 165.27828 179.07422 164.25781 C 177.9876 163.00584 176.00049 162.69986 173.90625 162.66406 z M 174.38281 164.74023 C 175.59994 164.72429 176.00386 164.87316 177.10938 165.80859 C 177.90308 169.43694 175.86151 169.43613 172.83789 169.51172 L 172.83789 164.78711 C 173.48041 164.76821 173.9771 164.74555 174.38281 164.74023 z "
   transform="matrix(26.458333,0,0,26.458333,9211,14799)" />
   <path
   id="path54"
   style="stroke-width:0.0377953;fill:#2b418c;fill-opacity:1"
   d="M 141.58398 186.02734 C 140.32168 186.01162 139.02498 186.08934 137.87695 186.10352 L 137.87695 200.31445 L 140.52344 200.31445 L 140.44727 194.79688 C 143.20632 194.75908 143.35707 196.57272 145.85156 200.31445 L 148.80078 200.31445 C 147.78031 198.19792 145.66353 195.89367 144.83203 194.00391 C 147.25093 193.2858 148.80071 190.10972 146.75977 187.61523 C 145.69677 186.33964 143.68782 186.05355 141.58398 186.02734 z M 142.10547 188.0957 C 143.38992 188.10456 143.91412 188.35252 144.90625 189.42969 C 145.35979 192.75567 143.50926 192.86983 140.52344 192.83203 L 140.52344 188.14453 C 141.16596 188.11618 141.67732 188.09275 142.10547 188.0957 z "
   transform="matrix(26.458333,0,0,26.458333,9211,14799)" />
   <path
   id="path56"
   style="stroke-width:0.0377953;fill:#2b418c;fill-opacity:1"
   d="M 124.24023 186.03516 C 122.97395 186.015 121.67733 186.08058 120.5293 186.06641 L 120.5293 200.35352 L 123.17383 200.31445 L 123.17383 194.79688 C 125.66832 194.79688 125.36683 195.28876 126.46289 197.02734 C 127.2188 198.199 127.93687 199.29535 128.61719 200.24023 L 131.52734 200.31445 L 127.48438 194.26758 C 128.39146 193.66285 129.48581 193.17186 130.05273 191.77344 C 130.58187 190.41281 130.35562 188.63571 129.48633 187.61523 C 128.37609 186.33964 126.35072 186.06874 124.24023 186.03516 z M 124.60742 188.10547 C 125.85289 188.08421 126.60563 188.21089 127.48438 189.31641 C 128.54264 192.529 126.08465 192.86983 123.25 192.83203 L 123.17383 188.14453 C 123.72186 188.13508 124.19226 188.11256 124.60742 188.10547 z "
   transform="matrix(26.458333,0,0,26.458333,9211,14799)" />
   <path
   class="fil1"
   d="m 13848,20099 h 62 v -253 l 168,211 c 29,35 23,42 85,42 l 2,-331 c -2,-10 -2,-15 -2,-24 l -8,-21 h -54 v 254 l -167,-209 c -24,-34 -26,-46 -86,-45 z"
   id="path58" />
   <path
   class="fil1"
   d="m 12938,19357 c -27,-19 -140,-173 -165,-204 -27,-36 -25,-52 -82,-47 -23,54 -4,291 -9,373 l 64,1 v -248 c 25,15 41,42 60,66 l 111,142 c 23,34 29,47 85,37 v -328 c 0,-54 -2,-49 -60,-44 z"
   id="path60" />
   <path
   id="path62"
   style="stroke-width:0.0377953;fill:#2b418c;fill-opacity:1"
   d="M 195.09961 162.66992 L 192.45312 162.74609 L 186.85938 176.91992 L 189.42969 176.91992 C 190.03441 175.97504 190.33658 174.38756 191.05469 173.48047 L 196.49805 173.48047 L 198.04688 176.91992 L 200.61719 176.91992 L 195.09961 162.66992 z M 193.77734 165.42969 L 195.85547 171.55273 L 191.50781 171.55273 L 193.77734 165.42969 z "
   transform="matrix(26.458333,0,0,26.458333,9211,14799)" />
   <path
   id="path64"
   style="stroke-width:0.0377953;fill:#2b418c;fill-opacity:1"
   d="M 163.125 162.66992 L 160.55469 162.74609 L 154.99805 176.80664 C 158.96655 177.60034 157.49268 175.78656 159.08008 173.55664 L 164.82617 173.4043 C 165.84664 176.50351 165.20379 177.1089 168.71875 176.91992 L 163.125 162.66992 z M 162.0293 165.73242 L 164.03125 171.47656 L 159.68555 171.47656 C 160.0635 170.26711 161.2356 166.52612 162.0293 165.73242 z "
   transform="matrix(26.458333,0,0,26.458333,9211,14799)" />
   <path
   class="fil1"
   d="m 14398,20099 h 70 v -165 c 131,5 80,181 245,163 l -147,-201 c 33,-47 114,-125 132,-173 h -74 c -16,27 -45,59 -66,85 -31,40 -35,70 -90,72 v -158 h -64 c -17,63 -4,294 -6,377 z"
   id="path66" />
   
   
   <path
   class="fil0"
   d="m 11733,19165 c -142,35 -113,301 66,254 132,-33 101,-295 -66,-254 z"
   id="path72"
   style="fill:#fefefe;fill-opacity:0;opacity:1" />
   <path
   class="fil1"
   d="m 11962,20014 c -19,21 -17,18 -25,45 189,132 315,-63 222,-147 -43,-40 -160,-39 -140,-104 11,-35 50,-39 91,-24 43,16 56,38 68,-35 -208,-98 -280,86 -194,158 44,33 149,25 136,96 -14,88 -121,14 -158,11 z"
   id="path74" />
   <path
   class="fil1"
   d="m 13265,20099 h 70 c -4,-131 -12,-125 37,-208 23,-40 83,-128 93,-169 l -74,1 -89,171 c -105,-131 -37,-171 -169,-172 4,28 68,124 89,159 60,98 41,87 43,218 z"
   id="path76" />
   <polygon
   class="fil1"
   points="14599,19482 14671,19480 14671,19162 14783,19162 14781,19103 14490,19105 14486,19159 14597,19164 "
   id="polygon78" />
   <polygon
   class="fil1"
   points="13162,19480 13230,19480 13232,19162 13343,19162 13341,19105 13051,19105 13047,19159 13160,19164 "
   id="polygon80" />
   <path
   class="fil1"
   d="m 12011,19480 h 220 v -56 l -148,-1 -2,-320 h -64 c -16,64 -4,292 -6,377 z"
   id="path82" />
   <path
   class="fil1"
   d="m 12248,20099 h 72 l -2,-377 h -64 c -14,51 -6,306 -6,377 z"
   id="path84" />
   <polygon
   class="fil1"
   points="14315,19723 14245,19722 14245,20099 14317,20099 "
   id="polygon86" />
   <path
   class="fil1"
   d="m 14046,19480 70,2 c 2,-71 8,-328 -7,-379 h -59 z"
   id="path88" />
   
   
   
   
   
   
   
  </g>
 </g>
</svg>
