<?xml version="1.0" encoding="UTF-8" standalone="no"?>
<svg
   xmlns:dc="http://purl.org/dc/elements/1.1/"
   xmlns:cc="http://creativecommons.org/ns#"
   xmlns:rdf="http://www.w3.org/1999/02/22-rdf-syntax-ns#"
   xmlns:svg="http://www.w3.org/2000/svg"
   xmlns="http://www.w3.org/2000/svg"
   xmlns:xlink="http://www.w3.org/1999/xlink"
   xmlns:sodipodi="http://sodipodi.sourceforge.net/DTD/sodipodi-0.dtd"
   xmlns:inkscape="http://www.inkscape.org/namespaces/inkscape"
   xml:space="preserve"
   width="274.54501"
   height="213.12801"
   version="1.1"
   style="clip-rule:evenodd;fill-rule:evenodd;image-rendering:optimizeQuality;shape-rendering:geometricPrecision;text-rendering:geometricPrecision"
   viewBox="0 0 7264.0035 5639.0118"
   id="svg106"
   sodipodi:docname="logowmrwhite.svg"
   inkscape:version="1.0.2-2 (e86c870879, 2021-01-15)"><metadata
   id="metadata110"><rdf:RDF><cc:Work
       rdf:about=""><dc:format>image/svg+xml</dc:format><dc:type
         rdf:resource="http://purl.org/dc/dcmitype/StillImage" /><dc:title /></cc:Work></rdf:RDF></metadata><sodipodi:namedview
   pagecolor="#ffffff"
   bordercolor="#666666"
   borderopacity="1"
   objecttolerance="10"
   gridtolerance="10"
   guidetolerance="10"
   inkscape:pageopacity="0"
   inkscape:pageshadow="2"
   inkscape:window-width="1920"
   inkscape:window-height="1009"
   id="namedview108"
   showgrid="false"
   inkscape:zoom="2.8284271"
   inkscape:cx="79.546959"
   inkscape:cy="81.18154"
   inkscape:window-x="-8"
   inkscape:window-y="-8"
   inkscape:window-maximized="1"
   inkscape:current-layer="_522399560"
   inkscape:document-rotation="0" />
 <defs
   id="defs7">
  <style
   type="text/css"
   id="style2">
   <![CDATA[
    .fil0 {fill:#FEFEFE}
    .fil3 {fill:#FECC07}
    .fil2 {fill:#7CB932}
    .fil1 {fill:#2B418C}
   ]]>
  </style>
   <clipPath
   id="id0"
   style="clip-rule:nonzero">
    <path
   d="m 9211,20438 h 7264 V 14799 H 9211 Z"
   id="path4" />
   </clipPath>
 </defs>
 <g
   id="Warstwa_x0020_1"
   transform="translate(-9211,-14799)">
  <metadata
   id="CorelCorpID_0Corel-Layer" />
  <g
   clip-path="url(#id0)"
   id="g12">
   <image
   xlink:href="../../../../../Users/denis/Pictures/MOSiR/11924-logo%20wolontariat-e483d162-dd85-483e-b66d-90d2c9176c5b_Images%5C11924-logo%20wolontariat-e483d162-dd85-483e-b66d-90d2c9176c5b_ImgID1.png"
   id="image10"
   height="5639"
   width="7264"
   y="14799"
   x="9211" />
  </g>
  <g
   id="_522399560">
   <path
   class="fil0"
   d="m 9211,17983 c 25,-55 31,-336 274,-541 599,-506 1387,-56 1387,616 -2,450 -362,812 -796,828 -239,9 -476,-95 -593,-218 -285,-294 -221,-422 -272,-535 v 2305 h 1653 l -2,-101 3960,-2 v 103 h 1653 v -4760 c -12,33 -14,93 -22,131 -56,252 -233,481 -482,586 -163,68 -338,87 -525,44 -83,-20 -151,-52 -219,-88 -119,-67 -232,-183 -300,-299 -37,-64 -68,-138 -89,-218 -125,-505 235,-995 748,-1029 v -6 H 9211 Z"
   id="path14"
   style="fill:#ffffff;fill-opacity:0" />
   <path
   id="path16"
   style="stroke-width:0.0377953;fill:#ffffff;fill-opacity:1"
   d="M 136.26367 9.5507812 C 135.18005 9.5764356 134.09329 9.6302135 133.00195 9.7128906 C 114.2555 11.149111 99.21163 19.502018 87.873047 32.84375 L 82.808594 39.912109 C 80.767649 43.200298 78.992966 46.677405 77.443359 50.570312 C 70.64021 67.464801 71.886903 86.966781 80.164062 103.21875 C 81.94044 106.73371 84.132779 110.28713 86.287109 113.08398 C 88.101283 115.31391 91.993525 119.73592 94.072266 121.58789 C 139.61557 160.7438 205.30481 125.93468 201.63867 69.695312 C 199.36859 35.058311 169.85596 8.7554963 136.26367 9.5507812 z M 137.33984 28.46875 C 137.7925 28.457972 138.30789 28.4697 138.89844 28.498047 C 139.46537 29.6697 140.44637 30.501175 140.71094 32.050781 C 140.93771 33.638183 139.2008 44.749803 138.89844 46.375 C 137.72678 52.649016 138.6703 65.878079 134.02148 61.833984 C 131.75377 59.86863 132.43502 45.846515 133.00195 42.142578 C 133.53109 38.400846 131.26279 37.984966 132.92578 33.109375 C 134.08326 29.670005 134.17124 28.544193 137.33984 28.46875 z M 163.48828 29.787109 C 163.86069 29.801098 164.25572 29.848554 164.67383 29.933594 C 169.81399 31.029657 161.80108 41.726449 160.0625 46.791016 C 158.28612 52.120149 156.43371 61.493095 151.36914 62.626953 C 150.27308 61.682071 149.70703 59.715831 149.70703 57.939453 C 149.63144 55.444965 150.42426 54.840517 151.36914 53.404297 C 153.06993 50.683037 152.12665 46.451356 153.86523 43.427734 C 154.69673 41.915923 155.64185 41.613211 156.43555 39.572266 C 157.28594 36.950218 157.90217 29.577279 163.48828 29.787109 z M 177.34375 42.464844 C 177.50998 42.452171 177.6798 42.452232 177.85156 42.464844 C 178.63677 42.522496 179.47995 42.849985 180.39648 43.501953 C 181.00121 47.697229 177.41156 52.346743 175.18164 56.164062 C 172.83833 60.170362 169.02045 67.388327 165.20312 69.882812 C 163.72914 70.789899 161.53753 70.866698 161.08398 69.279297 C 159.98792 66.066698 164.37248 64.857084 165.69531 62.400391 C 169.63592 55.1279 172.19075 42.857702 177.34375 42.464844 z M 97.697266 62.761719 C 101.1839 62.889711 105.11552 67.174305 106.12891 68.863281 C 108.09426 71.924699 107.45275 72.794424 107.15039 76.158203 C 106.84803 79.446392 109.87034 79.143033 107.86719 82.884766 C 102.65144 84.320986 98.607142 75.326252 96.792969 72.416016 C 96.188244 71.471134 95.621721 70.903285 94.941406 69.882812 C 93.618572 67.955254 93.618153 64.629371 95.394531 63.419922 C 96.110279 62.923859 96.892658 62.732182 97.697266 62.761719 z M 187.68359 64.507812 C 190.17757 64.370511 191.75526 66.515517 189.58203 69.279297 C 188.93951 70.072998 187.46441 70.865188 186.51953 71.621094 C 184.51638 73.435267 183.11886 75.36377 181.30469 76.951172 C 178.92359 78.992117 172.76279 85.039748 168.07617 85.001953 C 167.32027 81.298016 175.63463 75.21182 177.90234 73.548828 C 181.30392 71.205521 180.4731 70.677338 182.81641 67.578125 C 184.36129 65.49466 186.18721 64.590194 187.68359 64.507812 z M 134.83984 65.640625 C 136.76332 65.598511 139.1826 66.953411 142.10938 69.466797 C 143.96128 71.091994 143.28186 70.564616 146.1543 71.09375 C 151.29445 72.076427 152.69197 75.855284 156.32031 78.878906 C 160.85575 82.620639 159.83717 83.641323 162.0293 85.001953 C 163.50331 85.90904 164.90055 85.833892 165.42969 87.345703 C 166.07221 88.895309 162.97412 92.37106 161.38672 94.525391 C 159.68593 97.019879 158.89167 99.552463 157.75781 102.68945 C 157.11529 104.23906 154.99745 107.4133 153.52344 110.36133 C 151.89824 113.42275 150.04801 114.29267 147.40234 116.03125 C 143.88738 118.26117 141.61916 116.71256 138.06641 115.6543 C 125.66956 112.10154 120.86999 114.52022 115.01172 103.18164 C 114.3314 101.82101 113.68813 100.49666 113.00781 99.173828 C 110.58891 95.016348 107.94334 91.087063 111.49609 87.042969 C 113.68822 87.042969 115.08638 88.289807 117.42969 88.894531 L 123.09961 82.808594 C 126.31221 77.857413 126.23695 81.599689 130.50781 78.689453 C 130.73458 76.572918 129.41169 76.233874 129.86523 73.248047 C 130.71563 68.060645 132.36681 65.694771 134.83984 65.640625 z "
   transform="matrix(26.458333,0,0,26.458333,9211,14799)" />
   <path
   class="fil2"
   d="m 9211,17983 v 150 c 51,113 -13,241 272,535 117,123 354,227 593,218 434,-16 794,-378 796,-828 0,-672 -788,-1122 -1387,-616 -243,205 -249,486 -274,541 z"
   id="path18"
   style="fill:#ffffff;fill-opacity:1" />
   <path
   class="fil3"
   d="m 16475,15678 v -90 c -18,-48 -18,-121 -31,-172 -96,-366 -457,-643 -858,-611 -513,34 -873,524 -748,1029 21,80 52,154 89,218 68,116 181,232 300,299 68,36 136,68 219,88 187,43 362,24 525,-44 249,-105 426,-334 482,-586 8,-38 10,-98 22,-131 z"
   id="path20"
   style="fill:#ffffff;fill-opacity:1" />
   
   <polygon
   class="fil2"
   points="14822,20335 10862,20337 10864,20438 14822,20438 "
   id="polygon24"
   style="fill:#ffffff;fill-opacity:1" />
   
   
   
   
   
   <path
   id="path36"
   style="stroke-width:0.0377953;fill:#ffffff;fill-opacity:1"
   d="M 121.96094 162.53516 C 121.41229 162.54657 120.83365 162.61381 120.22656 162.74609 C 111.19349 164.71145 113.76423 179.26391 123.74219 176.88281 C 131.75006 175.00486 130.19068 162.36394 121.96094 162.53516 z M 122.08203 164.79297 C 126.92581 164.64385 127.8105 172.92441 123.66602 174.5 C 117.27861 176.8811 114.78383 167.20569 120.45312 165.12695 C 121.03777 164.91435 121.58095 164.80839 122.08203 164.79297 z "
   transform="matrix(26.458333,0,0,26.458333,9211,14799)" />
   <path
   id="path38"
   style="stroke-width:0.0377953;fill:#ffffff;fill-opacity:1"
   d="M 97.234375 162.49805 C 96.459481 162.45951 95.618387 162.54775 94.714844 162.78516 C 85.606182 165.12846 88.554669 179.26391 98.457031 176.88281 C 106.06097 174.99895 104.72502 162.8706 97.234375 162.49805 z M 96.443359 164.85352 C 101.75458 164.66915 102.49162 173.44399 97.814453 174.61328 C 91.049099 176.38966 89.953383 166.33651 95.320312 165.01367 C 95.714801 164.91682 96.089278 164.86581 96.443359 164.85352 z "
   transform="matrix(26.458333,0,0,26.458333,9211,14799)" />
   <path
   id="path40"
   style="stroke-width:0.0377953;fill:#ffffff;fill-opacity:1"
   d="M 94.802734 185.91211 C 94.250292 185.91759 93.666908 185.97832 93.052734 186.10352 C 83.981868 187.91769 86.512863 202.58354 96.566406 200.24023 C 104.36168 198.43315 103.08937 185.82989 94.802734 185.91211 z M 94.814453 188.14844 C 100.09675 188.03453 100.60462 196.87591 95.962891 198.00977 C 89.348717 199.63496 88.101612 189.61971 93.695312 188.29688 C 94.089801 188.20475 94.4623 188.15603 94.814453 188.14844 z "
   transform="matrix(26.458333,0,0,26.458333,9211,14799)" />
   
   <path
   id="path44"
   style="stroke-width:0.0377953;fill:#ffffff;fill-opacity:1"
   d="M 165.48047 185.9043 C 164.36137 185.93796 163.30447 186.05685 162.48242 186.17969 L 162.40625 200.20117 C 165.50546 200.7681 173.21584 201.06995 172.83789 195.81641 C 172.68671 194.00223 171.74138 193.77681 170.49414 192.94531 C 171.21225 192.2272 172.38339 191.66035 172.45898 190.03516 C 172.74245 186.4635 168.83775 185.80331 165.48047 185.9043 z M 165.05273 188.14453 C 168.41651 188.14453 170.98584 188.10798 169.39844 191.73633 C 167.84883 192.34105 167.09368 192.22588 165.05273 192.26367 L 165.05273 188.14453 z M 166.75977 194.03711 C 168.52433 194.00876 170.26758 194.19158 170.26758 196.11914 C 170.19199 198.68922 167.39604 198.23633 165.05273 198.23633 L 165.05273 194.07812 C 165.58187 194.07812 166.17158 194.04656 166.75977 194.03711 z "
   transform="matrix(26.458333,0,0,26.458333,9211,14799)" />
   <path
   class="fil1"
   d="m 11410,19371 -89,-265 c -111,-9 -70,109 -144,262 l -76,-260 -74,-5 111,377 64,2 80,-250 c 8,-12 6,-11 13,-17 l 84,265 h 66 c 16,-78 111,-329 107,-377 -91,3 -72,10 -95,101 -16,56 -35,110 -47,167 z"
   id="path46"
   style="fill:#ffffff;fill-opacity:1" />
   
   <path
   class="fil1"
   d="m 11060,20096 62,3 v -258 c 2,2 4,2 6,5 l 62,110 c 20,39 35,92 78,98 51,-22 95,-166 134,-217 l 2,262 h 61 c 0,-80 11,-315 -4,-379 -94,6 -78,24 -121,104 -19,37 -56,120 -78,147 -21,-48 -105,-210 -134,-248 l -66,-1 z"
   id="path50"
   style="fill:#ffffff;fill-opacity:1" />
   <path
   id="path52"
   style="stroke-width:0.0377953;fill:#ffffff;fill-opacity:1"
   d="M 173.90625 162.66406 C 172.6497 162.64258 171.35361 162.71775 170.19141 162.74609 L 170.19141 176.91992 L 172.83789 176.99609 L 172.83789 171.43945 C 175.10561 171.36386 174.69031 171.47706 176.58008 174.46289 C 178.12968 176.91958 177.59959 177.1089 181.15234 176.91992 C 180.39644 175.37032 178.28103 172.45908 177.10938 170.94727 C 178.05426 170.22916 179.22614 169.66257 179.67969 168.45312 C 180.24662 167.0169 179.90571 165.27828 179.07422 164.25781 C 177.9876 163.00584 176.00049 162.69986 173.90625 162.66406 z M 174.38281 164.74023 C 175.59994 164.72429 176.00386 164.87316 177.10938 165.80859 C 177.90308 169.43694 175.86151 169.43613 172.83789 169.51172 L 172.83789 164.78711 C 173.48041 164.76821 173.9771 164.74555 174.38281 164.74023 z "
   transform="matrix(26.458333,0,0,26.458333,9211,14799)" />
   <path
   id="path54"
   style="stroke-width:0.0377953;fill:#ffffff;fill-opacity:1"
   d="M 141.58398 186.02734 C 140.32168 186.01162 139.02498 186.08934 137.87695 186.10352 L 137.87695 200.31445 L 140.52344 200.31445 L 140.44727 194.79688 C 143.20632 194.75908 143.35707 196.57272 145.85156 200.31445 L 148.80078 200.31445 C 147.78031 198.19792 145.66353 195.89367 144.83203 194.00391 C 147.25093 193.2858 148.80071 190.10972 146.75977 187.61523 C 145.69677 186.33964 143.68782 186.05355 141.58398 186.02734 z M 142.10547 188.0957 C 143.38992 188.10456 143.91412 188.35252 144.90625 189.42969 C 145.35979 192.75567 143.50926 192.86983 140.52344 192.83203 L 140.52344 188.14453 C 141.16596 188.11618 141.67732 188.09275 142.10547 188.0957 z "
   transform="matrix(26.458333,0,0,26.458333,9211,14799)" />
   <path
   id="path56"
   style="stroke-width:0.0377953;fill:#ffffff;fill-opacity:1"
   d="M 124.24023 186.03516 C 122.97395 186.015 121.67733 186.08058 120.5293 186.06641 L 120.5293 200.35352 L 123.17383 200.31445 L 123.17383 194.79688 C 125.66832 194.79688 125.36683 195.28876 126.46289 197.02734 C 127.2188 198.199 127.93687 199.29535 128.61719 200.24023 L 131.52734 200.31445 L 127.48438 194.26758 C 128.39146 193.66285 129.48581 193.17186 130.05273 191.77344 C 130.58187 190.41281 130.35562 188.63571 129.48633 187.61523 C 128.37609 186.33964 126.35072 186.06874 124.24023 186.03516 z M 124.60742 188.10547 C 125.85289 188.08421 126.60563 188.21089 127.48438 189.31641 C 128.54264 192.529 126.08465 192.86983 123.25 192.83203 L 123.17383 188.14453 C 123.72186 188.13508 124.19226 188.11256 124.60742 188.10547 z "
   transform="matrix(26.458333,0,0,26.458333,9211,14799)" />
   <path
   class="fil1"
   d="m 13848,20099 h 62 v -253 l 168,211 c 29,35 23,42 85,42 l 2,-331 c -2,-10 -2,-15 -2,-24 l -8,-21 h -54 v 254 l -167,-209 c -24,-34 -26,-46 -86,-45 z"
   id="path58"
   style="fill:#ffffff;fill-opacity:1" />
   <path
   class="fil1"
   d="m 12938,19357 c -27,-19 -140,-173 -165,-204 -27,-36 -25,-52 -82,-47 -23,54 -4,291 -9,373 l 64,1 v -248 c 25,15 41,42 60,66 l 111,142 c 23,34 29,47 85,37 v -328 c 0,-54 -2,-49 -60,-44 z"
   id="path60"
   style="fill:#ffffff;fill-opacity:1" />
   <path
   id="path62"
   style="stroke-width:0.0377953;fill:#ffffff;fill-opacity:1"
   d="M 195.09961 162.66992 L 192.45312 162.74609 L 186.85938 176.91992 L 189.42969 176.91992 C 190.03441 175.97504 190.33658 174.38756 191.05469 173.48047 L 196.49805 173.48047 L 198.04688 176.91992 L 200.61719 176.91992 L 195.09961 162.66992 z M 193.77734 165.42969 L 195.85547 171.55273 L 191.50781 171.55273 L 193.77734 165.42969 z "
   transform="matrix(26.458333,0,0,26.458333,9211,14799)" />
   <path
   id="path64"
   style="stroke-width:0.0377953;fill:#ffffff;fill-opacity:1"
   d="M 163.125 162.66992 L 160.55469 162.74609 L 154.99805 176.80664 C 158.96655 177.60034 157.49268 175.78656 159.08008 173.55664 L 164.82617 173.4043 C 165.84664 176.50351 165.20379 177.1089 168.71875 176.91992 L 163.125 162.66992 z M 162.0293 165.73242 L 164.03125 171.47656 L 159.68555 171.47656 C 160.0635 170.26711 161.2356 166.52612 162.0293 165.73242 z "
   transform="matrix(26.458333,0,0,26.458333,9211,14799)" />
   <path
   class="fil1"
   d="m 14398,20099 h 70 v -165 c 131,5 80,181 245,163 l -147,-201 c 33,-47 114,-125 132,-173 h -74 c -16,27 -45,59 -66,85 -31,40 -35,70 -90,72 v -158 h -64 c -17,63 -4,294 -6,377 z"
   id="path66"
   style="fill:#ffffff;fill-opacity:1" />
   
   
   
   <path
   class="fil1"
   d="m 11962,20014 c -19,21 -17,18 -25,45 189,132 315,-63 222,-147 -43,-40 -160,-39 -140,-104 11,-35 50,-39 91,-24 43,16 56,38 68,-35 -208,-98 -280,86 -194,158 44,33 149,25 136,96 -14,88 -121,14 -158,11 z"
   id="path74"
   style="fill:#ffffff;fill-opacity:1" />
   <path
   class="fil1"
   d="m 13265,20099 h 70 c -4,-131 -12,-125 37,-208 23,-40 83,-128 93,-169 l -74,1 -89,171 c -105,-131 -37,-171 -169,-172 4,28 68,124 89,159 60,98 41,87 43,218 z"
   id="path76"
   style="fill:#ffffff;fill-opacity:1" />
   <polygon
   class="fil1"
   points="14599,19482 14671,19480 14671,19162 14783,19162 14781,19103 14490,19105 14486,19159 14597,19164 "
   id="polygon78"
   style="fill:#ffffff;fill-opacity:1" />
   <polygon
   class="fil1"
   points="13162,19480 13230,19480 13232,19162 13343,19162 13341,19105 13051,19105 13047,19159 13160,19164 "
   id="polygon80"
   style="fill:#ffffff;fill-opacity:1" />
   <path
   class="fil1"
   d="m 12011,19480 h 220 v -56 l -148,-1 -2,-320 h -64 c -16,64 -4,292 -6,377 z"
   id="path82"
   style="fill:#ffffff;fill-opacity:1" />
   <path
   class="fil1"
   d="m 12248,20099 h 72 l -2,-377 h -64 c -14,51 -6,306 -6,377 z"
   id="path84"
   style="fill:#ffffff;fill-opacity:1" />
   <polygon
   class="fil1"
   points="14315,19723 14245,19722 14245,20099 14317,20099 "
   id="polygon86"
   style="fill:#ffffff;fill-opacity:1" />
   <path
   class="fil1"
   d="m 14046,19480 70,2 c 2,-71 8,-328 -7,-379 h -59 z"
   id="path88"
   style="fill:#ffffff;fill-opacity:1" />
   
   
   
   
   
   
   
  <path
   class="fil1"
   d="m 12904.619,17441.281 c 54,-51 54,-149 116,-242 18,-27 39,-36 47,-73 -37,-21 -93,-22 -132,-38 -45,-18 -70,-47 -123,-50 -54,50 -99,137 -64,235 25,72 58,152 156,168 z"
   id="path48"
   style="clip-rule:evenodd;fill:#ffffff;fill-rule:evenodd;image-rendering:optimizeQuality;shape-rendering:geometricPrecision;text-rendering:geometricPrecision;fill-opacity:0.98393571" /></g>
 </g>
</svg>
