<?xml version="1.0" encoding="UTF-8" standalone="no"?>
<svg
   xmlns:dc="http://purl.org/dc/elements/1.1/"
   xmlns:cc="http://creativecommons.org/ns#"
   xmlns:rdf="http://www.w3.org/1999/02/22-rdf-syntax-ns#"
   xmlns:svg="http://www.w3.org/2000/svg"
   xmlns="http://www.w3.org/2000/svg"
   xmlns:sodipodi="http://sodipodi.sourceforge.net/DTD/sodipodi-0.dtd"
   xmlns:inkscape="http://www.inkscape.org/namespaces/inkscape"
   xml:space="preserve"
   width="274.54501"
   height="213.12801"
   version="1.1"
   style="clip-rule:evenodd;fill-rule:evenodd;image-rendering:optimizeQuality;shape-rendering:geometricPrecision;text-rendering:geometricPrecision"
   viewBox="0 0 7264.0035 5639.0118"
   id="svg106"
   sodipodi:docname="logob.svg"
   inkscape:version="1.0.2-2 (e86c870879, 2021-01-15)"><metadata
   id="metadata110"><rdf:RDF><cc:Work
       rdf:about=""><dc:format>image/svg+xml</dc:format><dc:type
         rdf:resource="http://purl.org/dc/dcmitype/StillImage" /><dc:title></dc:title></cc:Work></rdf:RDF></metadata><sodipodi:namedview
   pagecolor="#ffffff"
   bordercolor="#666666"
   borderopacity="1"
   objecttolerance="10"
   gridtolerance="10"
   guidetolerance="10"
   inkscape:pageopacity="0"
   inkscape:pageshadow="2"
   inkscape:window-width="1920"
   inkscape:window-height="1009"
   id="namedview108"
   showgrid="false"
   inkscape:zoom="2.8284271"
   inkscape:cx="241.00448"
   inkscape:cy="78.047482"
   inkscape:window-x="-8"
   inkscape:window-y="-8"
   inkscape:window-maximized="1"
   inkscape:current-layer="Warstwa_x0020_1"
   inkscape:document-rotation="0" />
 <defs
   id="defs7">
  <style
   type="text/css"
   id="style2">
   <![CDATA[
    .fil0 {fill:#FEFEFE}
    .fil3 {fill:#FECC07}
    .fil2 {fill:#7CB932}
    .fil1 {fill:#2B418C}
   ]]>
  </style>
   <clipPath
   id="id0"
   style="clip-rule:nonzero">
    <path
   d="m 9211,20438 h 7264 V 14799 H 9211 Z"
   id="path4" />
   </clipPath>
 </defs>
 <g
   id="Warstwa_x0020_1"
   transform="translate(-9211,-14799)">
  <metadata
   id="CorelCorpID_0Corel-Layer" />
  
  <g
   id="_522399560">
   
   <path
   class="fil1"
   d="m 12730,15056 c -496,38 -894,259 -1194,612 l -134,187 c -54,87 -101,179 -142,282 -180,447 -147,963 72,1393 47,93 105,187 162,261 48,59 151,176 206,225 1205,1036 2943,115 2846,-1373 -62,-946 -892,-1657 -1816,-1587 z"
   id="path16" />
   <path
   class="fil2"
   d="m 9211,17983 v 150 c 51,113 -13,241 272,535 117,123 354,227 593,218 434,-16 794,-378 796,-828 0,-672 -788,-1122 -1387,-616 -243,205 -249,486 -274,541 z"
   id="path18" />
   <path
   class="fil3"
   d="m 16475,15678 v -90 c -18,-48 -18,-121 -31,-172 -96,-366 -457,-643 -858,-611 -513,34 -873,524 -748,1029 21,80 52,154 89,218 68,116 181,232 300,299 68,36 136,68 219,88 187,43 362,24 525,-44 249,-105 426,-334 482,-586 8,-38 10,-98 22,-131 z"
   id="path20" />
   <path
   class="fil0"
   d="m 12664,16881 c -113,77 -111,-22 -196,109 l -150,161 c -62,-16 -99,-49 -157,-49 -94,107 -24,211 40,321 18,35 35,70 53,106 155,300 282,236 610,330 94,28 154,69 247,10 70,-46 119,-69 162,-150 39,-78 95,-162 112,-203 30,-83 51,-150 96,-216 42,-57 124,-149 107,-190 -14,-40 -51,-38 -90,-62 -58,-36 -31,-63 -151,-162 -96,-80 -133,-180 -269,-206 -76,-14 -58,0 -107,-43 -177,-152 -284,-144 -324,100 -12,79 23,88 17,144 z"
   id="path22" />
   <polygon
   class="fil2"
   points="14822,20335 10862,20337 10864,20438 14822,20438 "
   id="polygon24" />
   <path
   class="fil0"
   d="m 13216,16456 c 134,-30 183,-278 230,-419 46,-134 258,-417 122,-446 -177,-36 -194,181 -218,255 -21,54 -46,62 -68,102 -46,80 -21,192 -66,264 -25,38 -46,54 -44,120 0,47 15,99 44,124 z"
   id="path26" />
   <path
   class="fil0"
   d="m 16475,15588 v -789 h -889 v 6 c 401,-32 762,245 858,611 13,51 13,124 31,172 z"
   id="path28" />
   <path
   class="fil0"
   d="m 12886,15553 c -125,-6 -123,18 -158,122 -44,129 16,140 2,239 -15,98 -33,469 27,521 123,107 98,-243 129,-409 8,-43 54,-337 48,-379 -7,-41 -33,-63 -48,-94 z"
   id="path30" />
   <path
   class="fil0"
   d="m 13984,15950 c -194,-138 -266,273 -389,500 -35,65 -151,97 -122,182 12,42 70,40 109,16 101,-66 202,-257 264,-363 59,-101 154,-224 138,-335 z"
   id="path32" />
   <path
   class="fil0"
   d="m 12065,16992 c 53,-99 -27,-91 -19,-178 8,-89 25,-112 -27,-193 -33,-55 -183,-214 -284,-144 -47,32 -47,120 -12,171 18,27 33,42 49,67 48,77 155,315 293,277 z"
   id="path34" />
   <path
   class="fil1"
   d="m 12392,19105 c -239,52 -171,437 93,374 226,-53 164,-430 -93,-374 z"
   id="path36" />
   <path
   class="fil1"
   d="m 11717,19106 c -241,62 -163,436 99,373 222,-55 156,-440 -99,-373 z"
   id="path38" />
   <path
   class="fil1"
   d="m 11673,19723 c -240,48 -173,436 93,374 220,-51 167,-427 -93,-374 z"
   id="path40" />
   <path
   class="fil0"
   d="m 13658,17048 c 124,1 287,-159 350,-213 48,-42 85,-93 138,-141 25,-20 64,-41 81,-62 92,-117 -70,-192 -179,-45 -62,82 -40,96 -130,158 -60,44 -280,205 -260,303 z"
   id="path42" />
   <path
   class="fil1"
   d="m 13508,20096 c 82,15 286,23 276,-116 -4,-48 -29,-54 -62,-76 19,-19 50,-34 52,-77 10,-126 -177,-115 -264,-102 z"
   id="path44" />
   <path
   class="fil1"
   d="m 11410,19371 -89,-265 c -111,-9 -70,109 -144,262 l -76,-260 -74,-5 111,377 64,2 80,-250 c 8,-12 6,-11 13,-17 l 84,265 h 66 c 16,-78 111,-329 107,-377 -91,3 -72,10 -95,101 -16,56 -35,110 -47,167 z"
   id="path46" />
   <path
   class="fil1"
   d="m 12927,17417 c 54,-51 54,-149 116,-242 18,-27 39,-36 47,-73 -37,-21 -93,-22 -132,-38 -45,-18 -70,-47 -123,-50 -54,50 -99,137 -64,235 25,72 58,152 156,168 z"
   id="path48" />
   <path
   class="fil1"
   d="m 11060,20096 62,3 v -258 c 2,2 4,2 6,5 l 62,110 c 20,39 35,92 78,98 51,-22 95,-166 134,-217 l 2,262 h 61 c 0,-80 11,-315 -4,-379 -94,6 -78,24 -121,104 -19,37 -56,120 -78,147 -21,-48 -105,-210 -134,-248 l -66,-1 z"
   id="path50" />
   <path
   class="fil1"
   d="m 13714,19480 70,2 v -147 c 60,-2 49,1 99,80 41,65 27,70 121,65 -20,-41 -76,-118 -107,-158 25,-19 56,-34 68,-66 15,-38 6,-84 -16,-111 -46,-53 -153,-42 -235,-40 z"
   id="path52" />
   <path
   class="fil1"
   d="m 12859,20099 h 70 l -2,-146 c 73,-1 77,47 143,146 h 78 c -27,-56 -83,-117 -105,-167 64,-19 105,-103 51,-169 -45,-54 -154,-41 -235,-40 z"
   id="path54" />
   <path
   class="fil1"
   d="m 12400,20100 70,-1 v -146 c 66,0 58,13 87,59 20,31 39,60 57,85 l 77,2 -107,-160 c 24,-16 53,-29 68,-66 14,-36 8,-83 -15,-110 -47,-54 -156,-40 -237,-41 z"
   id="path56" />
   <path
   class="fil1"
   d="m 13848,20099 h 62 v -253 l 168,211 c 29,35 23,42 85,42 l 2,-331 c -2,-10 -2,-15 -2,-24 l -8,-21 h -54 v 254 l -167,-209 c -24,-34 -26,-46 -86,-45 z"
   id="path58" />
   <path
   class="fil1"
   d="m 12938,19357 c -27,-19 -140,-173 -165,-204 -27,-36 -25,-52 -82,-47 -23,54 -4,291 -9,373 l 64,1 v -248 c 25,15 41,42 60,66 l 111,142 c 23,34 29,47 85,37 v -328 c 0,-54 -2,-49 -60,-44 z"
   id="path60" />
   <path
   class="fil1"
   d="m 14155,19480 h 68 c 16,-25 24,-67 43,-91 h 144 l 41,91 h 68 l -146,-377 -70,2 z"
   id="path62" />
   <path
   class="fil1"
   d="m 13312,19477 c 105,21 66,-27 108,-86 l 152,-4 c 27,82 10,98 103,93 l -148,-377 -68,2 z"
   id="path64" />
   <path
   class="fil1"
   d="m 14398,20099 h 70 v -165 c 131,5 80,181 245,163 l -147,-201 c 33,-47 114,-125 132,-173 h -74 c -16,27 -45,59 -66,85 -31,40 -35,70 -90,72 v -158 h -64 c -17,63 -4,294 -6,377 z"
   id="path66" />
   <path
   class="fil0"
   d="m 11690,19781 c -148,35 -115,300 60,257 131,-32 107,-296 -60,-257 z"
   id="path68" />
   <path
   class="fil0"
   d="m 12398,19168 c -150,55 -84,311 85,248 121,-46 80,-308 -85,-248 z"
   id="path70" />
   <path
   class="fil0"
   d="m 11733,19165 c -142,35 -113,301 66,254 132,-33 101,-295 -66,-254 z"
   id="path72" />
   <path
   class="fil1"
   d="m 11962,20014 c -19,21 -17,18 -25,45 189,132 315,-63 222,-147 -43,-40 -160,-39 -140,-104 11,-35 50,-39 91,-24 43,16 56,38 68,-35 -208,-98 -280,86 -194,158 44,33 149,25 136,96 -14,88 -121,14 -158,11 z"
   id="path74" />
   <path
   class="fil1"
   d="m 13265,20099 h 70 c -4,-131 -12,-125 37,-208 23,-40 83,-128 93,-169 l -74,1 -89,171 c -105,-131 -37,-171 -169,-172 4,28 68,124 89,159 60,98 41,87 43,218 z"
   id="path76" />
   <polygon
   class="fil1"
   points="14599,19482 14671,19480 14671,19162 14783,19162 14781,19103 14490,19105 14486,19159 14597,19164 "
   id="polygon78" />
   <polygon
   class="fil1"
   points="13162,19480 13230,19480 13232,19162 13343,19162 13341,19105 13051,19105 13047,19159 13160,19164 "
   id="polygon80" />
   <path
   class="fil1"
   d="m 12011,19480 h 220 v -56 l -148,-1 -2,-320 h -64 c -16,64 -4,292 -6,377 z"
   id="path82" />
   <path
   class="fil1"
   d="m 12248,20099 h 72 l -2,-377 h -64 c -14,51 -6,306 -6,377 z"
   id="path84" />
   <polygon
   class="fil1"
   points="14315,19723 14245,19722 14245,20099 14317,20099 "
   id="polygon86" />
   <path
   class="fil1"
   d="m 14046,19480 70,2 c 2,-71 8,-328 -7,-379 h -59 z"
   id="path88" />
   <path
   class="fil0"
   d="m 13578,20044 c 62,0 136,12 138,-56 0,-68 -82,-54 -138,-54 z"
   id="path90" />
   <path
   class="fil0"
   d="m 13784,19284 c 80,-2 134,-2 113,-98 -39,-33 -45,-29 -113,-27 z"
   id="path92" />
   <path
   class="fil0"
   d="m 12472,19901 c 75,1 140,-8 112,-93 -31,-39 -56,-32 -114,-31 z"
   id="path94" />
   <path
   class="fil0"
   d="m 12929,19901 c 79,1 128,-2 116,-90 -35,-38 -48,-37 -116,-34 z"
   id="path96" />
   <path
   class="fil0"
   d="m 13578,19886 c 54,-1 74,2 115,-14 42,-96 -26,-95 -115,-95 z"
   id="path98" />
   <path
   class="fil0"
   d="m 13436,19336 h 115 l -53,-152 c -21,21 -52,120 -62,152 z"
   id="path100" />
   <polygon
   class="fil0"
   points="14278,19338 14393,19338 14338,19176 "
   id="polygon102" />
  </g>
 </g>
</svg>
