<?xml version="1.0" encoding="utf-8"?>
<!-- Generator: Adobe Illustrator 16.0.0, SVG Export Plug-In . SVG Version: 6.00 Build 0)  -->
<!DOCTYPE svg PUBLIC "-//W3C//DTD SVG 1.1//EN" "http://www.w3.org/Graphics/SVG/1.1/DTD/svg11.dtd">
<svg version="1.1" id="Warstwa_1" xmlns="http://www.w3.org/2000/svg" xmlns:xlink="http://www.w3.org/1999/xlink" x="0px" y="0px"
	 width="175.547px" height="72.441px" viewBox="0 0 175.547 72.441" enable-background="new 0 0 175.547 72.441"
	 xml:space="preserve">
<g>
	<path fill-rule="evenodd" clip-rule="evenodd" fill="#73B644" d="M157.598,7.243c10.653,0,15.875,7.942,15.875,15.763
		c-0.065,5.082-2.205,9.992-6.55,12.98l8.624,14.104v1.659h-12.222l-7.559-13.919h-6.035v13.919h-11.53V7.243
		C144.74,7.243,151.114,7.189,157.598,7.243L157.598,7.243z M157.598,7.243L157.598,7.243L157.598,7.243z M157.533,28.352
		c3.215,0,4.783-2.805,4.783-5.597c0-2.804-1.515-5.411-4.783-5.411h-7.999v11.008H157.533L157.533,28.352z"/>
	<polygon fill-rule="evenodd" clip-rule="evenodd" fill="#73B644" points="43.511,72.441 84.192,72.441 84.192,70.805 
		43.511,70.805 43.511,72.441 	"/>
	<path fill-rule="evenodd" clip-rule="evenodd" fill="#FFCB06" d="M134.581,6.239c0,3.459-2.764,6.24-6.188,6.24
		c-3.412,0-6.165-2.781-6.165-6.24c0-3.458,2.753-6.239,6.165-6.239C131.817,0,134.581,2.781,134.581,6.239L134.581,6.239z"/>
	<path fill-rule="evenodd" clip-rule="evenodd" fill="#204186" d="M76.205,29.496c0,6.905-5.519,12.479-12.354,12.479
		c-6.836,0-12.354-5.573-12.354-12.479c0-6.895,5.519-12.468,12.354-12.468C70.687,17.028,76.205,22.602,76.205,29.496
		L76.205,29.496z"/>
	<path fill-rule="evenodd" clip-rule="evenodd" fill="#73B644" d="M12.354,45.509c0,3.459-2.765,6.24-6.188,6.24
		C2.754,51.749,0,48.968,0,45.509c0-3.458,2.754-6.239,6.166-6.239C9.589,39.27,12.354,42.051,12.354,45.509L12.354,45.509z"/>
	<path fill-rule="evenodd" clip-rule="evenodd" fill="#73B644" d="M101.066,24.664c-4.214-0.447-6.737-1.146-6.737-4.134
		c0-3.36,3.4-4.059,5.979-4.059c3.094,0,5.926,1.265,5.99,4.32h10.775c0.186-9.665-8.449-14.553-16.951-14.553
		c-7.603,0-14.592,3.502-16.566,10.418c2.369,3.697,3.752,8.104,3.752,12.839c0,0.196-0.011,0.381-0.021,0.567
		c3.094,2.41,7.459,3.49,11.826,3.764c3.215,0.196,8.129,0.381,8.129,4.646c0,2.662-3.467,4.19-6.734,4.19
		c-3.534,0-6.99-1.528-6.99-4.571h-7.811c-0.647,1.679-1.471,3.272-2.457,4.733c2.248,6.741,9.688,9.948,17.378,9.948
		c9.007,0,18.015-4.897,18.015-14.245C118.641,27.718,110.456,25.493,101.066,24.664L101.066,24.664z"/>
	<path fill-rule="evenodd" clip-rule="evenodd" fill="#73B644" d="M43.544,7.123h-4.092L22.008,26.377L4.487,7.123H0.406v31.721
		c1.536-1.362,3.554-2.191,5.76-2.191c2.205,0,4.213,0.829,5.771,2.191v-7.623l9.38,9.914h1.317l9.38-9.914v20.528h11.531V41.343
		c-1.997-3.491-3.137-7.527-3.137-11.847s1.14-8.355,3.137-11.847V7.123L43.544,7.123z"/>
	<path fill-rule="evenodd" clip-rule="evenodd" fill="#73B644" d="M133.758,51.749V20.77c-1.48,1.145-3.336,1.844-5.365,1.844
		c-1.985,0-3.829-0.677-5.299-1.811l-0.043,30.946H133.758L133.758,51.749z"/>
	<path fill-rule="evenodd" clip-rule="evenodd" fill="#204186" d="M45.606,61.512H46.1c0.395,0,0.691,0.087,0.877,0.239
		c0.165,0.143,0.252,0.349,0.252,0.622c0,0.143-0.022,0.272-0.065,0.394c-0.033,0.119-0.099,0.217-0.187,0.305
		c-0.077,0.087-0.208,0.152-0.34,0.208c-0.143,0.043-0.318,0.076-0.538,0.076h-0.494V61.512L45.606,61.512z M45.606,61.512
		L45.606,61.512L45.606,61.512z M48.053,64.457c-0.022-0.011-0.033-0.022-0.055-0.045c0.131-0.064,0.252-0.142,0.362-0.228
		c0.198-0.153,0.373-0.339,0.505-0.547c0.142-0.194,0.242-0.414,0.318-0.654c0.066-0.229,0.099-0.479,0.099-0.74
		c0-0.339-0.055-0.666-0.175-0.95c-0.121-0.305-0.318-0.566-0.582-0.786c-0.252-0.206-0.592-0.381-0.987-0.501
		c-0.395-0.109-0.878-0.163-1.437-0.163h-2.589v7.864h2.095v-2.771h0.242c0.131,0,0.187,0.033,0.208,0.044
		c0.044,0.021,0.088,0.076,0.131,0.131l1.241,2.17c0.109,0.196,0.329,0.426,0.778,0.426h1.898l-1.755-2.901
		C48.262,64.675,48.163,64.555,48.053,64.457L48.053,64.457z"/>
	<path fill-rule="evenodd" clip-rule="evenodd" fill="#204186" d="M54.954,59.887c-0.088,0.021-0.154,0.065-0.208,0.108
		c-0.065,0.044-0.11,0.098-0.155,0.153c-0.043,0.053-0.076,0.108-0.109,0.174l-1.031,2.17c-0.099,0.164-0.176,0.328-0.242,0.481
		c0,0.01-0.01,0.01-0.01,0.021c0-0.012,0-0.012-0.012-0.021c-0.065-0.153-0.153-0.306-0.24-0.481l-1.043-2.18
		c-0.077-0.132-0.165-0.241-0.264-0.328c-0.12-0.098-0.286-0.142-0.482-0.142h-1.843l2.83,4.886v2.979h2.097v-2.979l2.83-4.886
		h-1.855C55.119,59.843,55.031,59.853,54.954,59.887L54.954,59.887z"/>
	<path fill-rule="evenodd" clip-rule="evenodd" fill="#204186" d="M61.241,62.832c-0.088,0.054-0.198,0.086-0.319,0.109
		c-0.142,0.032-0.318,0.042-0.493,0.042h-0.703v-1.472h0.812c0.187,0,0.352,0.021,0.472,0.043c0.11,0.034,0.208,0.066,0.274,0.12
		c0.066,0.055,0.109,0.12,0.142,0.208c0.033,0.087,0.055,0.217,0.055,0.37s-0.021,0.284-0.065,0.372
		C61.372,62.711,61.316,62.776,61.241,62.832L61.241,62.832z M61.241,62.832L61.241,62.832L61.241,62.832z M59.726,64.532h1.021
		c0.196,0,0.361,0.022,0.482,0.056c0.121,0.031,0.208,0.076,0.274,0.141c0.056,0.044,0.099,0.109,0.121,0.186
		c0.033,0.088,0.043,0.197,0.043,0.316c0,0.1-0.011,0.196-0.033,0.307c-0.021,0.087-0.065,0.162-0.132,0.229
		c-0.055,0.074-0.143,0.13-0.262,0.173c-0.121,0.056-0.286,0.077-0.483,0.077h-1.031V64.532L59.726,64.532z M59.726,64.532
		L59.726,64.532L59.726,64.532z M62.645,63.605c0.055-0.033,0.109-0.064,0.165-0.108c0.175-0.121,0.317-0.262,0.427-0.415
		c0.121-0.152,0.209-0.315,0.264-0.49c0.044-0.175,0.077-0.36,0.077-0.546c0-0.327-0.055-0.632-0.176-0.906
		c-0.109-0.284-0.296-0.522-0.548-0.719c-0.252-0.185-0.571-0.328-0.943-0.437c-0.373-0.098-0.833-0.142-1.372-0.142h-2.907v7.864
		h3.148c0.472,0,0.888-0.065,1.251-0.186c0.362-0.12,0.68-0.294,0.932-0.514c0.252-0.217,0.451-0.479,0.582-0.783
		c0.131-0.296,0.208-0.623,0.208-0.96c0-0.47-0.143-0.862-0.407-1.168C63.171,63.9,62.94,63.726,62.645,63.605L62.645,63.605z"/>
	<path fill-rule="evenodd" clip-rule="evenodd" fill="#204186" d="M69.896,63.998c0,0.056,0,0.131,0,0.197l-3.149-4.025
		c-0.055-0.065-0.109-0.121-0.153-0.153c-0.055-0.053-0.109-0.088-0.165-0.12c-0.055-0.021-0.121-0.044-0.187-0.044
		c-0.065-0.01-0.131-0.01-0.219-0.01h-1.086v7.864h1.898v-4.21c0-0.045,0-0.098,0-0.142l3.126,3.992
		c0.099,0.13,0.219,0.218,0.34,0.272c0.111,0.055,0.252,0.087,0.417,0.087h1.076v-7.864h-1.898V63.998L69.896,63.998z"/>
	<polygon fill-rule="evenodd" clip-rule="evenodd" fill="#204186" points="73.352,67.707 75.47,67.707 75.47,59.843 73.352,59.843 
		73.352,67.707 	"/>
	<path fill-rule="evenodd" clip-rule="evenodd" fill="#204186" d="M81.756,63.944c-0.099-0.152-0.209-0.295-0.329-0.394
		c-0.034-0.022-0.065-0.054-0.1-0.076c0.1-0.087,0.198-0.185,0.286-0.316l2.412-3.315h-1.863c-0.198,0-0.362,0.021-0.505,0.086
		c-0.144,0.056-0.274,0.176-0.396,0.339l-1.678,2.434c-0.078,0.108-0.198,0.163-0.395,0.163h-0.078v-3.021h-2.095v7.864h2.095
		v-3.185h0.22c0.164,0,0.263,0.021,0.307,0.044c0.056,0.032,0.11,0.065,0.144,0.13l1.689,2.608c0.043,0.064,0.087,0.119,0.131,0.163
		c0.056,0.054,0.109,0.098,0.176,0.13c0.076,0.044,0.154,0.066,0.24,0.088c0.078,0.012,0.176,0.021,0.287,0.021h1.887L81.756,63.944
		L81.756,63.944z"/>
</g>
</svg>
